<svg id="STONE" xmlns="http://www.w3.org/2000/svg" viewBox="0 0 500 500"><defs><style>.cls-1{fill:#6b81be;}.cls-2{fill:#9ab3da;}.cls-3{fill:#f68d88;}.cls-4{fill:#404b7c;}.cls-5{fill:#ecbdbb;}.cls-6{fill:#f9d4d4;}.cls-7{fill:#fff;}</style></defs><title>Discovery</title><path class="cls-1" d="M218,459.6H111.67a0.43,0.43,0,0,1,0-.86H218A0.43,0.43,0,0,1,218,459.6Z"/><path class="cls-1" d="M210.67,464.93H168.33a0.43,0.43,0,0,1,0-.86h42.33A0.43,0.43,0,0,1,210.67,464.93Z"/><path class="cls-1" d="M457.33,459.6H351a0.43,0.43,0,0,1,0-.86H457.33A0.43,0.43,0,0,1,457.33,459.6Z"/><path class="cls-1" d="M408.67,464.93H366.33a0.43,0.43,0,0,1,0-.86h42.33A0.43,0.43,0,0,1,408.67,464.93Z"/><path class="cls-1" d="M75.5,455s-0.5-16,2.25-22S83.5,409,89,402.75s14-24.75,16-44.5,6-48.5,17-48.25,8.75,26.75,13,37.75,9.5,15,9,34,18.75,24.5,20.5,42.25l2.25,31H75.5Z"/><path class="cls-2" d="M87,455s-0.25-13.5,5.75-26,3-24.25,7-34.75-3.24-30.39,5.5-38.45,16.5,9.94,17.5,26.7,10,17.25,11.5,32.25,9.25,15.77,14.5,24.76,4.5,15.49,4.5,15.49H87Z"/><path class="cls-2" d="M346.25,464.5H224l10-24.25s1.26-5.35,2.36-10.44A82,82,0,0,0,238,421a9.81,9.81,0,0,1,1.43-2.85c2.84-4.64,9.33-13.68,13.88-19.93,2.85-3.9,4.94-6.72,4.94-6.72l16.88-.57c8.88-.31,18.18-1.25,20.14-1.29h0.32a106.54,106.54,0,0,0,13.84-3.19c3.52-1.07,6.32-1.94,6.32-1.94l12.75,5.75s-0.13,1.15-.34,3L327,403.58c-0.64,5.77-1.25,11.32-1.25,11.67C325.75,416,346.25,464.5,346.25,464.5Z"/><path class="cls-1" d="M293.83,464.5H279.78c-1-5.59-2.34-12.31-3-14.25-1.25-3.5-10.75-11.5-13.75-12.75-2.7-1.13-22.25-6.31-26.64-7.69A82,82,0,0,0,238,421a9.81,9.81,0,0,1,1.43-2.85c7.47,1.4,21.31,4.13,26.32,6.1,7,2.75,19.25,15.75,22,20C289.38,446.77,292,456.78,293.83,464.5Z"/><path class="cls-1" d="M328.16,393.21L327,403.58A101.91,101.91,0,0,1,304.25,396c-3.14-1.54-6.27-4.18-9-6.36h0.32a106.54,106.54,0,0,0,13.84-3.19A48.62,48.62,0,0,0,328.16,393.21Z"/><path class="cls-1" d="M329.13,464.5H316c-3.66-10.87-9.79-28.08-13.46-33.25-5.5-7.75-21.25-23.5-28.5-26.75-4.65-2.08-14.34-4.68-20.69-6.28,2.85-3.9,4.94-6.72,4.94-6.72l16.88-.57c8.79,2.73,18.34,6.4,22.37,10.32,8.25,8,20.25,24,23.25,32.75C322.53,439.19,326.33,453.62,329.13,464.5Z"/><path class="cls-2" d="M120.16,111.05s-4.35,10-6.74,13.79,0.75,5.25,8.39-2.85,24.13-26.53,32.37-34.17,15.14-10.94,14.69-15-6.29,1.5-10.64,3.45-9.14,1.65-16,4-6.74,6.14-7,10.34-2.7,3.9-6.89,3S117.16,95.77,120.16,111.05Z"/><path class="cls-2" d="M246.53,98c2,2.32,31.19-26.58,43.94-37.7s27.4-19.8,30.38-24.41-11.94,2.44-14.65,3.26-5.15-3.26-13-1.36-6.24,8.14-7.6,9.49-10.58-.54-15.73,4.07-1.9,11.66-3,14.11-8.41,2.17-11.66,5.43-1.36,6,.27,10.85S243.55,94.46,246.53,98Z"/><circle class="cls-3" cx="344" cy="99" r="14.25"/><path class="cls-2" d="M334.88,199c-3,0,1.38-5.12,4.25-9.5s1.75-10.62,6.5-12.12,7.75-4.25,7.13-9.87,1.75-16.25,13.75-13.5c0,0,1.38-5.37,7.63-4.25s13.5-4.12,18.63-7.37,5.5-1.37,1.63,2.5S359.5,176.5,351.75,183.5,336.38,199,334.88,199Z"/><path class="cls-2" d="M368.58,397.5s16.75,25.58,13,61.67H373.4S360.83,430.25,368.58,397.5Z"/><path class="cls-1" d="M377.67,459.6a0.43,0.43,0,0,1-.42-0.37l-7.17-48.5a0.43,0.43,0,0,1,.36-0.49,0.43,0.43,0,0,1,.49.36l7.17,48.5a0.43,0.43,0,0,1-.36.49h-0.06Z"/><path class="cls-1" d="M398.18,380.33s7.15,32.33-14.5,78.83h-8.19S375.49,421.83,398.18,380.33Z"/><path class="cls-2" d="M379.76,459.6h-0.1a0.43,0.43,0,0,1-.32-0.52l14.46-62a0.42,0.42,0,0,1,.52-0.32,0.43,0.43,0,0,1,.32.52l-14.46,62A0.43,0.43,0,0,1,379.76,459.6Z"/><path class="cls-2" d="M427.44,380.33s4.56,35.33-37.59,78.83h-8.19S387.4,414,427.44,380.33Z"/><path class="cls-1" d="M385.94,459.6a0.44,0.44,0,0,1-.2,0,0.43,0.43,0,0,1-.18-0.58l32.62-62a0.43,0.43,0,1,1,.76.4l-32.62,62A0.43,0.43,0,0,1,385.94,459.6Z"/><path class="cls-1" d="M395,459.17s10.83-15.83,19.67-16,2.83,9.33,2.83,9.33,6.18-3.17,10.09-2,0,5.67,0,5.67,10.25-2.33,6.25,3H395Z"/><path class="cls-1" d="M429.71,438.25c-4,0-6.62,7.63-2.12,6.75S433.71,438.25,429.71,438.25Z"/><path class="cls-1" d="M437,447.94c-2.71-.71-5.83,4-2.63,4.2S439.67,448.65,437,447.94Z"/><path class="cls-2" d="M362.81,265.81s-3.62-6-9.56-9l-2.19,1.81s9,10.94,10.19,24Z"/><path class="cls-2" d="M393.25,253a85.74,85.74,0,0,0-21,25c-1.23,10-2.32,19.76-3,27.3C367.33,329,354,453.48,354,453.48h-9.4s16.07-176.81,17.57-187.81,3.58-35.29,3.58-35.29l16.92-9.69s-2.34,6.64-3.6,11c-0.6,2.06-2.39,13.5-4.31,27.48l13.12-13Z"/><path class="cls-1" d="M387.88,246.13s4.63,0.13,5.38,6.88C393.25,253,387.06,252.38,387.88,246.13Z"/><path class="cls-1" d="M365.75,230.38s5.94,1.06,7.69.43,9.23-10.12,9.23-10.12Z"/><path class="cls-1" d="M359.33,374.6h-0.08a0.43,0.43,0,0,1-.35-0.5c0-.21,3.83-21.57,4.16-30.28,0.25-6.77.12-26,0-36.29,0-3.22,0-5.7,0-6.86,0-3.24.82-9,1.77-15.59,0.54-3.74,1.09-7.61,1.57-11.5,1.32-10.73,3.48-39.16,3.5-39.45a0.43,0.43,0,1,1,.86.06c0,0.29-2.18,28.73-3.5,39.49-0.48,3.9-1,7.77-1.57,11.51-0.94,6.6-1.76,12.29-1.76,15.47,0,1.16,0,3.63,0,6.85,0.08,10.32.21,29.54,0,36.33-0.33,8.76-4.13,30.18-4.17,30.39A0.43,0.43,0,0,1,359.33,374.6Z"/><path class="cls-1" d="M351.38,398.05h-0.06a0.43,0.43,0,0,1-.36-0.49c0-.33,4.81-33.1,6.35-45.95s3.42-47.46,3.44-47.81a0.44,0.44,0,0,1,.45-0.41,0.43,0.43,0,0,1,.41.45c0,0.35-1.9,35-3.45,47.86s-6.3,45.64-6.35,46A0.43,0.43,0,0,1,351.38,398.05Z"/><path class="cls-1" d="M353.33,452.57a0.43,0.43,0,0,1-.43-0.41c-0.07-1.31-1.65-32.3,0-41.57a186.24,186.24,0,0,0,2.5-23,0.43,0.43,0,0,1,.34-0.5,0.42,0.42,0,0,1,.5.33c0.19,0.93-.84,14-2.5,23.33s0,41.06,0,41.38a0.43,0.43,0,0,1-.41.45h0Z"/><path class="cls-4" d="M167.67,275l-8.29,5.88s-6.71,21.79,43.29,21.13,81.08-29.58,76.21-51.62l-13.75-5.12Z"/><path class="cls-1" d="M234.83,234.67s64,37.83,65.67,40,4.17,13.33,4.17,15.67-29.5,56.17-29.5,56.17-12.33-2.5-12.33-3,13.67-51.83,13.67-51.83-48.5-8.5-71-20.33S200.67,219.67,234.83,234.67Z"/><path class="cls-2" d="M269.5,341.76l-0.14,0a0.43,0.43,0,0,1-.27-0.54l15.17-45.5a0.43,0.43,0,0,1,.17-0.22,40.89,40.89,0,0,0,4.79-3.53,51.78,51.78,0,0,0-8,.15,0.43,0.43,0,0,1-.44-0.29,0.43,0.43,0,0,1,.17-0.5c3-2,7.88-5.55,8.33-6.79-0.47-.59-5.92-0.37-10.71.24a0.44,0.44,0,0,1-.39-0.16,0.43,0.43,0,0,1-.07-0.42c0.4-1.07,1.33-4.08.84-5.17-1.18-1.27-30.71-13.43-50.27-21.28a0.43,0.43,0,1,1,.32-0.8c11.73,4.71,50,20.18,50.73,21.72,0.57,1.27-.18,3.91-0.59,5.16,3-.35,9.83-1,10.82.21a0.78,0.78,0,0,1,.12.78c-0.54,1.49-5,4.71-7.34,6.32,4.57-.28,7.06-0.17,7.44.34a0.53,0.53,0,0,1,.07.52c-0.34.86-3.92,3.27-5.2,4.12l-15.12,45.36A0.43,0.43,0,0,1,269.5,341.76Z"/><path class="cls-5" d="M263.83,342.58l-3.42,18.67s7.83,1.67,7.83,1.42S274,345.25,274,345.25Z"/><path class="cls-3" d="M306.92,384.78c-0.13,2.36-.42,4.22-0.42,4.22l-27.61,1.8c-0.58-2.43-1.6-4.44-3.39-4.13s-2.31,2.09-2.39,4.3l-16.19.95s-0.3-1.89-.63-5c-0.7-6.52-1.51-18.38.13-29a42.3,42.3,0,0,1,15.83.23,22.41,22.41,0,0,1,5.08,1.85s-2.25,7.58-2,8.33,10.42,5.42,15.17,6.25c0.42,0.08.86,0.13,1.31,0.17,4.53,0.36,10-1.08,13.11.67C307,376.57,307.13,381.23,306.92,384.78Z"/><path class="cls-5" d="M289.68,378.85c-1.46,0-17.07-5.22-19.47-7.24a1.09,1.09,0,0,1-.47-0.77c0-1,.94-6.46,1.73-10.82a0.43,0.43,0,1,1,.84.15c-1.09,6-1.72,9.92-1.72,10.67,0.63,1.26,17.21,7.16,19,7.16,0,0,.22-0.23.88-1.5a0.43,0.43,0,1,1,.76.39c-0.8,1.55-1.17,1.9-1.52,2h-0.06Z"/><path class="cls-1" d="M306.92,384.78c-0.13,2.36-.42,4.22-0.42,4.22l-27.61,1.8c-0.58-2.43-1.6-4.44-3.39-4.13s-2.31,2.09-2.39,4.3l-16.19.95s-0.3-1.89-.63-5Z"/><path class="cls-2" d="M260.5,336s15.25,2.83,23.38,4.63l-6.54,12.21A47.81,47.81,0,0,1,258.25,350Z"/><polygon class="cls-5" points="168.95 400.75 168.7 422.63 177.7 422.63 178.45 400.88 168.95 400.75"/><path class="cls-3" d="M185.83,451.12s-2.1,1.56-4.76,3.4c-0.12-1.43-.33-2.77-0.74-2.77-0.59,0-.79,2.34-0.85,3.86-3,2-6.2,4-7.91,4.64-3.62,1.25-24,.13-24,0.13s-0.26-2.1-.35-4.84c-0.14-3.78.06-8.77,1.73-11.16,2.88-4.13,10-4.38,10-4.38s5.38-11.62,5.62-12.88-1.5-7.62-1.5-7.62a58.68,58.68,0,0,1,19.88-.88l-1.5,7.38s2.27,10.21,3.72,20.11C185.42,447.81,185.65,449.49,185.83,451.12Z"/><path class="cls-5" d="M165.7,442.43a0.43,0.43,0,0,1-.3-0.12,8.54,8.54,0,0,0-4.84-1.79,0.43,0.43,0,0,1,.09-0.85,10.3,10.3,0,0,1,4.89,1.66l6.18-13.75a19.49,19.49,0,0,0-6-.2,0.43,0.43,0,0,1-.11-0.85,20.78,20.78,0,0,1,6.83.32,0.43,0.43,0,0,1,.31.6l-6.63,14.75a0.43,0.43,0,0,1-.31.25H165.7Z"/><path class="cls-1" d="M185.83,451.12s-2.1,1.56-4.76,3.4c-0.12-1.43-.33-2.77-0.74-2.77-0.59,0-.79,2.34-0.85,3.86-3,2-6.2,4-7.91,4.64-3.62,1.25-24,.13-24,0.13s-0.26-2.1-.35-4.84c6,0.39,21.48,1.31,23,.71s10.88-7.23,15-10.14C185.42,447.81,185.65,449.49,185.83,451.12Z"/><path class="cls-1" d="M172.33,268s-2.67,60.67-4,77-1.72,57.67-1.72,57.67,12.67,0.67,13-.33,15.72-53,16.39-60,25-62.33,28.67-82S182,220,172.33,268Z"/><path class="cls-2" d="M177.7,398.3h0a0.43,0.43,0,0,1-.38-0.47c1.93-17.36,7.6-34.35,9.15-38.76-1.06.56-2.53,1.2-3.26,0.88a0.83,0.83,0,0,1-.49-0.62c-0.25-1.26,2.58-7.1,3.42-8.79-6.24-8.26-5.88-9-5.76-9.24s0.52-1,8.93,1.16c11.19-55,17-83.55,17-83.55a0.43,0.43,0,1,1,.84.17s-5.83,28.75-17.08,84a0.43,0.43,0,0,1-.19.28,0.43,0.43,0,0,1-.34.05,46.72,46.72,0,0,0-8.3-1.64c0.4,1.08,3.13,5,5.75,8.47a0.43,0.43,0,0,1,0,.45c-1.81,3.62-3.6,7.78-3.46,8.47,0.3,0.19,2-.48,3.48-1.41a0.43,0.43,0,0,1,.63.52c-0.07.2-7.27,19.69-9.49,39.65A0.43,0.43,0,0,1,177.7,398.3Zm3.43-56.72"/><path class="cls-2" d="M162.45,394.25l23.88,0.38-3,14.63-18.5.38S163.45,400.38,162.45,394.25Z"/><path class="cls-4" d="M146.5,124.17s-10.67,13.5-8.17,31,14,23.17,14,23.17,43.5-11,54.67-11,28.83,3.5,28.83,3.5,5.5-15,5.17-25.83-8-19.5-8.5-19.5-17.83,2.33-33.83,3.33S146.5,124.17,146.5,124.17Z"/><path class="cls-1" d="M154.5,176.05a0.43,0.43,0,0,1-.39-0.61c5.32-11.32,6.94-20.5,5-28.08-2.14-8.24-9.4-16.41-11.22-18.37-1.27,2.61-6.61,13.92-6.93,20.4-0.36,7.27,6.65,18.84,10.2,19.94a0.89,0.89,0,0,0,.88-0.21c2.34-1.91,3.41-13.05,2.94-17.71-0.5-5-4.92-12.19-6.06-12.5-1,.41-4.33,10.41-4.33,13.21,0,2.27,4.7,7.58,5.91,8.2,0.78-.71,1.72-7.54,1.12-9.84a9.85,9.85,0,0,0-1.95-3.56,17.93,17.93,0,0,0-1.33,5.45,0.43,0.43,0,0,1-.86,0,20.62,20.62,0,0,1,1.66-6.42,0.43,0.43,0,0,1,.7-0.13,11.11,11.11,0,0,1,2.61,4.44c0.54,2.07-.11,9.57-1.41,10.72a0.74,0.74,0,0,1-.79.16c-1.36-.54-6.52-6.28-6.52-9,0-2.19,2.94-12.52,4.71-13.86a0.79,0.79,0,0,1,.71-0.18c1.69,0.46,6.2,8.33,6.69,13.25,0.42,4.22-.42,16.15-3.25,18.46a1.74,1.74,0,0,1-1.68.36c-3.85-1.2-11.19-13.07-10.8-20.81,0.38-7.5,7-20.74,7.3-21.3a0.43,0.43,0,0,1,.32-0.23,0.42,0.42,0,0,1,.37.12c0.09,0.09,9.36,9.57,11.86,19.19,2,7.78.38,17.16-5,28.67A0.43,0.43,0,0,1,154.5,176.05Z"/><path class="cls-1" d="M162.15,171.5s-3.65,60.61-2.78,70.8,36,12.24,36,12.24v-86.3Z"/><path class="cls-2" d="M182.63,231.38a50.55,50.55,0,0,0-3.75,5.13c-0.5,1.13-19.5,44.38-19.5,44.38s15,10.25,42.25,5.63,44.63-24.37,57-31.12,20.25-5,20.25-5-19.87-14.12-29.12-20Z"/><path class="cls-1" d="M184.83,273.43a0.43,0.43,0,0,1,0-.86,67.25,67.25,0,0,0,36.08-14.73c16.75-13.93,26.19-14.58,26.59-14.6a0.43,0.43,0,0,1,0,.86c-0.09,0-9.59.69-26.08,14.4a68.14,68.14,0,0,1-36.59,14.93h0Z"/><path class="cls-1" d="M190.33,258.76a0.43,0.43,0,0,1-.08-0.85c0.18,0,18.1-3.75,32-11.62a0.43,0.43,0,1,1,.42.75c-14.06,7.94-32.11,11.68-32.29,11.71h-0.09Z"/><path class="cls-5" d="M226.38,109.69s-2.47-1.06-3.09-1.22a1,1,0,0,0-1.16,1.34c0.44,0.75,6.09,3.09,6.25,3.22s2.66,2.72,2.75,2.72,3.44,0.09,3.44,0S226.38,109.69,226.38,109.69Z"/><path class="cls-5" d="M236.38,119.33a40.65,40.65,0,0,1-5.33-.12c-0.83-.25-3.67-3.42-4.08-3.75s-2.71-1.58-2.92-2.12,1.29-1.08,3.13.17a11.36,11.36,0,0,0,3.08,1.58l3.5,0.5Z"/><path class="cls-5" d="M245.08,135.83l-9.42-16.58s-2-.83-2.42-1.58-3-4.67-3-4.67-7.83-3.79-8.29-4.25-0.25-2.37,1.92-1.37,9.54,3.29,10.79,4.33,6.38,6.58,6.38,6.58l13.71,13Z"/><path class="cls-3" d="M232.25,141.25l15.92,7.92-3.67-10.5,16.33-2.33s16.83,28.67,17.33,31.83-0.5,12.33-2.33,13.67-28.33-1.08-43.08-5.58S211,135,232.25,141.25Z"/><path class="cls-5" d="M264.38,170.93a0.43,0.43,0,0,1-.36-0.2,191.35,191.35,0,0,0-14-18.51,0.43,0.43,0,0,1,.65-0.56,192.21,192.21,0,0,1,14,18.61,0.43,0.43,0,0,1-.14.59A0.42,0.42,0,0,1,264.38,170.93Z"/><path class="cls-5" d="M252,171.93a0.43,0.43,0,0,1-.43-0.43,115.94,115.94,0,0,0-1.27-13.79c-0.21-1.56-.35-2.59-0.35-3a0.43,0.43,0,0,1,.86,0c0,0.31.15,1.43,0.34,2.84a116.57,116.57,0,0,1,1.28,13.91A0.43,0.43,0,0,1,252,171.93Z"/><path class="cls-3" d="M245.08,145.25s-2.75-6.58-3-7.33,5.58-6.5,9.17-7.67,11,4.17,11.58,4.83a50.08,50.08,0,0,1,2.58,5.58l-1.33,1.25-0.83-1.33s-5.75-1.33-8.83-1.17-7.83,5.17-7.83,5.17l0.58,1.5Z"/><path class="cls-5" d="M248.11,143.55a0.43,0.43,0,0,1-.29-0.75c1.86-1.68,4.52-3.7,6.57-3.81a36.58,36.58,0,0,1,7.5.87,0.43,0.43,0,1,1-.17.84,35.3,35.3,0,0,0-7.28-.85c-1.41.08-3.56,1.35-6,3.59A0.43,0.43,0,0,1,248.11,143.55Z"/><path class="cls-3" d="M181.38,223.5l-1.5,8.75s23.25,9,42.13,8.5,30-9.87,30-9.87l-1.25-8.37C228.86,231.85,205.65,231.53,181.38,223.5Z"/><path class="cls-3" d="M255,215c0.25,1.25-4.25,9-4.25,9a115.71,115.71,0,0,1-18.86,6.54c-1.67.42-3.39,0.8-5.14,1.12a58,58,0,0,1-12.25,1.09C198,232.25,179,224,179,224s3-21,2-30.75-2.5-43.63-2.5-43.63l17.5-11.5c9.75-6,14.5-3,21.62-1.5a95.34,95.34,0,0,1,14.63,4.63s4.5,26,6.5,36.75,9.5,25,9.5,25-0.75,4.25-.75,5S254.75,213.75,255,215Z"/><path class="cls-5" d="M215.79,233.2l-1.31,0c-11.67-.35-24.57-4.56-31.22-7a0.43,0.43,0,0,1,.3-0.8c6.6,2.46,19.4,6.63,30.94,7a57.58,57.58,0,0,0,12.16-1.08c1.66-.3,3.38-0.68,5.11-1.11a118,118,0,0,0,16.62-5.57,0.43,0.43,0,1,1,.33.79A118.91,118.91,0,0,1,232,231c-1.75.44-3.49,0.82-5.17,1.13A60.52,60.52,0,0,1,215.79,233.2Z"/><path class="cls-2" d="M220.79,136.16h0a2.08,2.08,0,0,0-.11,1.9c2.46,5.53,14.77,33.42,21.65,52.11,0,0,.92-10.33.17-15.83s-5.26-24.29-9.32-34a4.5,4.5,0,0,0-.21-0.44h0a4.36,4.36,0,0,0-2.35-2l-7.31-2.61A2.09,2.09,0,0,0,220.79,136.16Z"/><path class="cls-5" d="M204.62,175.43a0.43,0.43,0,0,1-.42-0.37c-1-7.08-3.9-18.84-3.93-19a0.43,0.43,0,1,1,.83-0.21c0,0.12,2.84,11.47,3.89,18.63l0.81-.09c-0.38-2-1.93-10-3.22-14.89a0.43,0.43,0,1,1,.83-0.22c1.49,5.64,3.3,15.31,3.32,15.41a0.43,0.43,0,0,1-.37.51l-1.69.19h0Z"/><path class="cls-2" d="M204.63,175s-0.62,7.31-.19,7.75,4.19,0.19,4.37-.44-2.5-7.5-2.5-7.5Z"/><path class="cls-5" d="M225.22,173.05a0.43,0.43,0,0,1-.42-0.36,140.55,140.55,0,0,0-3.63-15.17,0.43,0.43,0,1,1,.82-0.25,143.26,143.26,0,0,1,3.59,14.87l0.81-.11c-0.59-2.64-3.61-16.1-5.53-21.56a0.43,0.43,0,0,1,.81-0.29c2.14,6.09,5.63,22,5.66,22.11a0.43,0.43,0,0,1-.36.52l-1.68.23h-0.06Z"/><path class="cls-2" d="M225.22,172.62s-0.44,7.33,0,7.75,4.19,0.08,4.36-.55-2.69-7.43-2.69-7.43Z"/><path class="cls-6" d="M231.89,230.54c-1.67.42-3.39,0.8-5.14,1.12l-6.67-11.16s4-13,3.92-13.25-5.67-6.25-5.67-6.25,0.75-7.08.67-8.92-4.56-22.73-4.58-23.58c-0.08-2.91-.75-7.58,1.42-2.83s6.91,24.91,6.91,26.08-0.33,8.08-.33,8.08,6.08,5.25,6.08,5.75-3.92,14.34-3.92,14.34Z"/><path class="cls-5" d="M209.13,221.59a63.61,63.61,0,0,1-15.07-1.84,0.43,0.43,0,0,1,.2-0.83c29.61,7.2,48.76-9.24,48.95-9.41a0.43,0.43,0,1,1,.57.64C243.62,210.3,230.46,221.59,209.13,221.59Z"/><path class="cls-5" d="M205.83,211.26a0.43,0.43,0,0,1-.05-0.85c0.19,0,18.87-2.39,29.18-8.12a0.43,0.43,0,0,1,.42.75c-10.45,5.81-29.3,8.19-29.49,8.22h-0.05Z"/><path class="cls-3" d="M182.17,150.67S175.08,140.58,175,140s4.83-9.58,6.17-10.58,16.5-3.92,23.83-4.33,15.58,2.25,16.33,2.58,4.92,3.17,5.25,5.17,0.67,18.33.67,18.33Z"/><path class="cls-5" d="M199.44,148.56a0.43,0.43,0,0,1-.34-0.17c-0.42-.55-10.36-13.48-10.95-14.31a0.54,0.54,0,0,1,0-.54c0.63-1.39,12.95-4.23,15.85-4.55,3.35-.37,10.49,2.42,13.39,3.64l0.14,0.06c0.34,0.14.7,0.28,0.14,13.92a0.42,0.42,0,0,1-.45.41,0.43,0.43,0,0,1-.41-0.45c0.19-4.56.4-11.93,0.21-13.16-5.91-2.47-10.75-3.81-12.94-3.56-3.8.41-13.56,3-15,4,1.43,1.93,10.67,13.93,10.76,14.06A0.43,0.43,0,0,1,199.44,148.56Z"/><path class="cls-2" d="M194.38,141.25s9-5.12,11.88-5.5,11,2.35,11,2.35l-0.54,31.28a0.72,0.72,0,0,1-1.29.41Z"/><path class="cls-2" d="M187.46,140.36a2.93,2.93,0,0,1,2.33,1.56c2.47,4.7,9.63,20.79,5.88,42.92-4.5,26.5-17.67,36.33-17.67,36.33V203.5s7.17-14.17,7.17-28.17c0-11.62-5.51-22-7.38-25.24a3.16,3.16,0,0,1-.36-2.24h0a3.18,3.18,0,0,1,1.22-1.91l6.78-5a3,3,0,0,1,2-.57h0Z"/><path class="cls-5" d="M214.88,184.8a0.43,0.43,0,0,1-.43-0.44c0-.09.12-9.53-0.25-14.08a0.43,0.43,0,0,1,.33-0.45l2.75-.62a0.43,0.43,0,0,1,.49.25,81.16,81.16,0,0,1,4.28,14,0.43,0.43,0,0,1-.25.48c-0.08,0-2.07.85-6.91,0.91h0Zm0.21-14.22c0.29,4.11.25,11.48,0.23,13.35a22.89,22.89,0,0,0,5.82-.72,81.25,81.25,0,0,0-4-13.09Z"/><path class="cls-2" d="M214.25,175.13a31.13,31.13,0,0,0,5.25-1.37,49.37,49.37,0,0,1,3.13,10.38,53.14,53.14,0,0,1-8.69.88S214.19,178.44,214.25,175.13Z"/><path class="cls-3" d="M178.5,149.63s-33.37,35.5-41.12,48c0,0,7.88,16.75,13.63,23.88l15.38-9.37-3.87-13.75,20-8.5S189.67,166.67,178.5,149.63Z"/><path class="cls-5" d="M152.73,199.39a33.71,33.71,0,0,1-10-1.48,0.43,0.43,0,0,1,.25-0.82,34.1,34.1,0,0,0,17,.69,2.89,2.89,0,0,1,.49-0.08,0.43,0.43,0,0,1,0,.86l-0.34.07A37,37,0,0,1,152.73,199.39Z"/><path class="cls-3" d="M147.38,221.63s3.8-5.63,8.63-7.87a25.25,25.25,0,0,1,12.13-2.31l3.13,8.81s-4.25,5.25-7.75,7.5-12.25,2-12.25,2Z"/><path class="cls-5" d="M150.69,218.11a0.43,0.43,0,0,1-.3-0.73,19.53,19.53,0,0,1,5.44-4,26.41,26.41,0,0,1,9.6-2.37,0.43,0.43,0,1,1,0,.86,25.54,25.54,0,0,0-9.28,2.29A18.7,18.7,0,0,0,151,218,0.43,0.43,0,0,1,150.69,218.11Z"/><path class="cls-5" d="M155.56,225.44s5.37-5.87,11.87-5.87a261.89,261.89,0,0,0,13.19,23.81l-3.87,7A311.9,311.9,0,0,1,155.56,225.44Z"/><path class="cls-3" d="M181.81,240s-3.69,7.13-9.44,17.63l3.88,3.25s7.75-8.5,11.63-18.87Z"/><path class="cls-4" d="M192.27,104.08a13.15,13.15,0,0,0-11.44-2.92c-7.25,1.33-9.25,8.14-4.33,12.32,4.14,3.52,2,7.44-1.84,7.05a2,2,0,0,0-2.12,2.59c0.68,2.28,2.78,4.86,8.88,4.62,10.75-.42,11.42-12.08,4.08-15.17s-3.17-8.5,5.08-5.25Z"/><path class="cls-2" d="M195.42,103.67s-4.5-1.42-5.67.67-1.17,4.75,4.08,4.58Z"/><path class="cls-5" d="M210.67,127.17l-0.42,6.49-0.67,10.26c-6.25,2.16-8.33-1.92-8.33-1.92L203,126.8l0.22-1.88Z"/><path class="cls-4" d="M210.67,127.17l-0.42,6.49c-4.27-1.19-6.38-4.92-7.22-6.86l0.22-1.88Z"/><path class="cls-4" d="M216.54,107.13a11,11,0,0,1,.13,7.67c-1.42,4.17-4.46-8.12-4.46-8.12Z"/><path class="cls-5" d="M198.67,112.33a75.19,75.19,0,0,0,3.25,12.17c1.92,4.75,8.5,6.23,11.33,5.31s6.25-13.48,1.83-22.81S196.58,100.92,198.67,112.33Z"/><path class="cls-4" d="M198.17,118.75l4.75-.42a24,24,0,0,1-.25-6.25c0.42-2.25,4-2.75,4.5-5.5s0.17-5.83-5.42-4.92S194.08,110.25,198.17,118.75Z"/><path class="cls-3" d="M217.33,108.17a56.35,56.35,0,0,0-15.46,3.29,51.61,51.61,0,0,0-8.29,3.79s-1.25-6.75-.41-10.58,9.83-8.34,15.16-8.09l0.34,0C213.82,97.31,217.33,108.17,217.33,108.17Z"/><path class="cls-2" d="M217.33,108.17a56.35,56.35,0,0,0-15.46,3.29c-0.18-3-.4-8.6.13-10.55,0.43-1.58,3-3.61,6.67-4.3C213.82,97.31,217.33,108.17,217.33,108.17Z"/><path class="cls-4" d="M200.91,111.81a69.71,69.71,0,0,1,7.51-7c2.9-2.05,10.33-3.42,18.17-2.33l-9.25,5.67S207.8,108.61,200.91,111.81Z"/><path class="cls-5" d="M202,119a6.83,6.83,0,0,0-6.37-5.5,6.56,6.56,0,0,0-3.26.76c-4.42,2.33-.33,12.08,10.58,9.17Z"/><path class="cls-4" d="M201.28,122a0.3,0.3,0,0,1-.28-0.19c-2.58-6.22-7.31-5-7.52-4.92a0.3,0.3,0,0,1-.16-0.58c0.06,0,5.45-1.46,8.24,5.27a0.3,0.3,0,0,1-.16.39Z"/><path class="cls-4" d="M196.75,121.65h-0.08a0.3,0.3,0,0,1-.21-0.37,17.64,17.64,0,0,1,1.6-3.8,0.3,0.3,0,0,1,.51.32,17.31,17.31,0,0,0-1.54,3.65A0.3,0.3,0,0,1,196.75,121.65Z"/><path class="cls-4" d="M205.26,114.75s1-2.88,3.2-2.09c0,0,.08-1.34.62-1.42s0.7,2.32.7,2.32A11.74,11.74,0,0,0,205.26,114.75Z"/><path class="cls-4" d="M216.53,114.28s-0.32-2.72-1.66-1.74c0,0,.08-1.32-0.22-1.33-0.69,0-.62,2.34-0.62,2.34A3.76,3.76,0,0,1,216.53,114.28Z"/><path class="cls-4" d="M212.5,122.34a0.3,0.3,0,0,1-.14-0.57c0.45-.23,1.64-1,1.67-1.74s-1.41-3.26-1.82-3.86a0.3,0.3,0,0,1,.5-0.34s2,3,1.93,4.22-1.8,2.15-2,2.26A0.3,0.3,0,0,1,212.5,122.34Z"/><path class="cls-4" d="M213.67,124.79a10,10,0,0,1-2.06,1.54c-1.24.66-2.68,0.88-3.24-1.12a7.88,7.88,0,0,1-.25-2.29S209.62,124.37,213.67,124.79Z"/><path class="cls-7" d="M211.61,126.33c-1.24.66-2.68,0.88-3.24-1.12A3.92,3.92,0,0,1,211.61,126.33Z"/><ellipse class="cls-4" cx="208.4" cy="117.54" rx="1.15" ry="1.42"/><circle class="cls-7" cx="208.65" cy="117.04" r="0.3"/><ellipse class="cls-4" cx="215.15" cy="117.54" rx="1.15" ry="1.42"/><circle class="cls-7" cx="215.4" cy="117.04" r="0.3"/></svg>